<svg width="89" height="109" viewBox="0 0 89 109" fill="none" xmlns="http://www.w3.org/2000/svg">
<g clip-path="url(#clip0_287_5683)">
<rect width="89" height="109" rx="5" fill="#121212"/>
<path d="M28.248 68.6V77.552H39.864V83H28.248V92.144H43.176V97.784H21V62.96H43.176V68.6H28.248ZM62.1416 79.472C61.5176 78.752 60.8376 78.248 60.1016 77.96C59.3816 77.672 58.6136 77.528 57.7976 77.528C56.9976 77.528 56.2696 77.68 55.6136 77.984C54.9576 78.288 54.3896 78.768 53.9096 79.424C53.4456 80.064 53.0856 80.888 52.8296 81.896C52.5736 82.904 52.4456 84.104 52.4456 85.496C52.4456 86.872 52.5496 88.04 52.7576 89C52.9656 89.96 53.2616 90.736 53.6456 91.328C54.0456 91.92 54.5256 92.352 55.0856 92.624C55.6456 92.88 56.2696 93.008 56.9576 93.008C58.1256 93.008 59.1016 92.776 59.8856 92.312C60.6856 91.848 61.4376 91.192 62.1416 90.344V79.472ZM68.7656 62V97.784H64.6856C63.8376 97.784 63.2936 97.4 63.0536 96.632L62.5016 94.472C62.0056 95.016 61.4776 95.512 60.9176 95.96C60.3736 96.408 59.7816 96.8 59.1416 97.136C58.5016 97.456 57.8136 97.704 57.0776 97.88C56.3416 98.056 55.5416 98.144 54.6776 98.144C53.3496 98.144 52.1336 97.864 51.0296 97.304C49.9256 96.744 48.9656 95.928 48.1496 94.856C47.3496 93.768 46.7256 92.44 46.2776 90.872C45.8296 89.304 45.6056 87.512 45.6056 85.496C45.6056 83.656 45.8536 81.944 46.3496 80.36C46.8616 78.776 47.5816 77.408 48.5096 76.256C49.4376 75.104 50.5576 74.2 51.8696 73.544C53.1816 72.888 54.6376 72.56 56.2376 72.56C57.5816 72.56 58.7096 72.76 59.6216 73.16C60.5496 73.56 61.3896 74.104 62.1416 74.792V62H68.7656Z" fill="#A32131"/>
<path d="M40.5919 33.264H52.5439V47.64C50.7679 48.936 48.8719 49.888 46.8559 50.496C44.8559 51.088 42.7359 51.384 40.4959 51.384C37.6319 51.384 35.0399 50.944 32.7199 50.064C30.3999 49.168 28.4159 47.928 26.7679 46.344C25.1199 44.76 23.8479 42.88 22.9519 40.704C22.0559 38.528 21.6079 36.152 21.6079 33.576C21.6079 30.968 22.0319 28.576 22.8799 26.4C23.7439 24.224 24.9679 22.352 26.5519 20.784C28.1359 19.216 30.0479 17.992 32.2879 17.112C34.5439 16.232 37.0639 15.792 39.8479 15.792C41.2879 15.792 42.6319 15.912 43.8799 16.152C45.1279 16.376 46.2799 16.696 47.3359 17.112C48.3919 17.512 49.3599 17.992 50.2399 18.552C51.1199 19.112 51.9199 19.728 52.6399 20.4L50.5519 23.616C50.2319 24.128 49.8159 24.44 49.3039 24.552C48.7919 24.664 48.2319 24.536 47.6239 24.168C47.0479 23.816 46.4799 23.504 45.9199 23.232C45.3759 22.944 44.7919 22.696 44.1679 22.488C43.5439 22.28 42.8639 22.12 42.1279 22.008C41.3919 21.896 40.5439 21.84 39.5839 21.84C37.9679 21.84 36.5039 22.12 35.1919 22.68C33.8799 23.24 32.7599 24.032 31.8319 25.056C30.9199 26.08 30.2159 27.312 29.7199 28.752C29.2239 30.192 28.9759 31.8 28.9759 33.576C28.9759 35.496 29.2479 37.216 29.7919 38.736C30.3359 40.24 31.1039 41.512 32.0959 42.552C33.0879 43.592 34.2719 44.384 35.6479 44.928C37.0399 45.472 38.5839 45.744 40.2799 45.744C41.4319 45.744 42.4559 45.632 43.3519 45.408C44.2639 45.168 45.1519 44.848 46.0159 44.448V38.592H42.0799C41.6159 38.592 41.2479 38.472 40.9759 38.232C40.7199 37.976 40.5919 37.656 40.5919 37.272V33.264ZM65.6772 51H58.4292V16.176H65.6772V51Z" fill="white"/>
</g>
<defs>
<clipPath id="clip0_287_5683">
<rect width="89" height="109" fill="white"/>
</clipPath>
</defs>
</svg>
