<svg width="100" height="37" viewBox="0 0 100 37" fill="none" xmlns="http://www.w3.org/2000/svg">
<g clip-path="url(#clip0_174_111)">
<path d="M19.5919 18.264H31.5439V32.64C29.7679 33.936 27.8719 34.888 25.8559 35.496C23.8559 36.088 21.7359 36.384 19.4959 36.384C16.6319 36.384 14.0399 35.944 11.7199 35.064C9.39991 34.168 7.41591 32.928 5.76791 31.344C4.11991 29.76 2.84791 27.88 1.95191 25.704C1.05591 23.528 0.60791 21.152 0.60791 18.576C0.60791 15.968 1.03191 13.576 1.87991 11.4C2.74391 9.224 3.96791 7.35199 5.55191 5.784C7.13591 4.216 9.04791 2.992 11.2879 2.112C13.5439 1.232 16.0639 0.791992 18.8479 0.791992C20.2879 0.791992 21.6319 0.911993 22.8799 1.152C24.1279 1.376 25.2799 1.696 26.3359 2.112C27.3919 2.512 28.3599 2.992 29.2399 3.552C30.1199 4.112 30.9199 4.728 31.6399 5.4L29.5519 8.616C29.2319 9.128 28.8159 9.43999 28.3039 9.552C27.7919 9.664 27.2319 9.536 26.6239 9.168C26.0479 8.816 25.4799 8.504 24.9199 8.232C24.3759 7.944 23.7919 7.696 23.1679 7.488C22.5439 7.27999 21.8639 7.12 21.1279 7.008C20.3919 6.896 19.5439 6.84 18.5839 6.84C16.9679 6.84 15.5039 7.12 14.1919 7.68C12.8799 8.24 11.7599 9.03199 10.8319 10.056C9.91991 11.08 9.21591 12.312 8.71991 13.752C8.22391 15.192 7.97591 16.8 7.97591 18.576C7.97591 20.496 8.24791 22.216 8.79191 23.736C9.33591 25.24 10.1039 26.512 11.0959 27.552C12.0879 28.592 13.2719 29.384 14.6479 29.928C16.0399 30.472 17.5839 30.744 19.2799 30.744C20.4319 30.744 21.4559 30.632 22.3519 30.408C23.2639 30.168 24.1519 29.848 25.0159 29.448V23.592H21.0799C20.6159 23.592 20.2479 23.472 19.9759 23.232C19.7199 22.976 19.5919 22.656 19.5919 22.272V18.264ZM44.6772 36H37.4292V1.176H44.6772V36Z" fill="white"/>
<path d="M59.2085 6.816V15.768H70.8245V21.216H59.2085V30.36H74.1364V36H51.9604V1.176H74.1364V6.816H59.2085ZM93.102 17.688C92.478 16.968 91.7981 16.464 91.0621 16.176C90.3421 15.888 89.5741 15.744 88.7581 15.744C87.9581 15.744 87.23 15.896 86.574 16.2C85.918 16.504 85.3501 16.984 84.8701 17.64C84.4061 18.28 84.0461 19.104 83.7901 20.112C83.534 21.12 83.406 22.32 83.406 23.712C83.406 25.088 83.5101 26.256 83.7181 27.216C83.9261 28.176 84.2221 28.952 84.6061 29.544C85.0061 30.136 85.486 30.568 86.046 30.84C86.606 31.096 87.23 31.224 87.918 31.224C89.086 31.224 90.062 30.992 90.8461 30.528C91.646 30.064 92.398 29.408 93.102 28.56V17.688ZM99.726 0.216003V36H95.6461C94.7981 36 94.2541 35.616 94.014 34.848L93.462 32.688C92.966 33.232 92.438 33.728 91.878 34.176C91.334 34.624 90.742 35.016 90.102 35.352C89.462 35.672 88.7741 35.92 88.0381 36.096C87.3021 36.272 86.502 36.36 85.6381 36.36C84.3101 36.36 83.094 36.08 81.99 35.52C80.886 34.96 79.9261 34.144 79.1101 33.072C78.3101 31.984 77.686 30.656 77.238 29.088C76.79 27.52 76.5661 25.728 76.5661 23.712C76.5661 21.872 76.814 20.16 77.31 18.576C77.822 16.992 78.5421 15.624 79.4701 14.472C80.3981 13.32 81.5181 12.416 82.8301 11.76C84.1421 11.104 85.598 10.776 87.198 10.776C88.542 10.776 89.6701 10.976 90.5821 11.376C91.5101 11.776 92.35 12.32 93.102 13.008V0.216003H99.726Z" fill="#A32131"/>
</g>
<defs>
<clipPath id="clip0_174_111">
<rect width="100" height="37" fill="white"/>
</clipPath>
</defs>
</svg>
